<svg xmlns="http://www.w3.org/2000/svg" xmlns:xlink="http://www.w3.org/1999/xlink" version="1.1" x="0px" y="0px" viewBox="0 0 100 125" style="enable-background:new 0 0 100 100;" xml:space="preserve"><title>Arrow 36.3</title><desc>Created with Sketch.</desc><g><g><path d="M50,9c22.6,0,41,18.4,41,41S72.6,91,50,91S9,72.6,9,50S27.4,9,50,9z M50,17c-18.2,0-33,14.8-33,33    s14.8,33,33,33s33-14.8,33-33S68.2,17,50,17z"/><polygon points="43.7,54 90,54 90,46 43.7,46 59.7,30 48.3,30 28.3,50 48.3,70 59.7,70   "/></g></g><text x="0" y="115" fill="#000000" font-size="5px" font-weight="bold" font-family="'Helvetica Neue', Helvetica, Arial-Unicode, Arial, Sans-serif">Created by Landan Lloyd</text><text x="0" y="120" fill="#000000" font-size="5px" font-weight="bold" font-family="'Helvetica Neue', Helvetica, Arial-Unicode, Arial, Sans-serif">from the Noun Project</text></svg>